<?xml version="1.0" encoding="utf-8"?>
<?xml-stylesheet type="text/xsl" href="rss1.xsl"?>
<rss version="2.0" xmlns:atom="http://www.w3.org/2005/Atom" xmlns:content="http://purl.org/rss/1.0/modules/content/" xmlns:dc="http://purl.org/dc/elements/1.1/" xmlns:media="http://search.yahoo.com/mrss/">
<channel>
 <title>Getty</title>
 <link>http://www.gettyimg.com/</link>
 <atom:link href="http://www.gettyimg.com/" rel="self" type="application/rss+xml" />

 
                <item>
                <title><![CDATA[【HD Live Performances】HDTV - Carly Rae Jepsen - NHK Hall, Tokyo, Japan, 07-10-2019 [1080p59.94] - caladan]]></title>
                <link><![CDATA[https://sharemania.us/threads/carly-rae-jepsen-nhk-hall-tokyo-japan-07-10-2019-1080p59-94-caladan.236102/]]></link>
                <description><![CDATA[<article>
<blockquote class="messageText SelectQuoteContainer ugc baseHtml">
<b>Here is an amazing recording (broadcasted on Japanese TV) of one of Carly's best shows</b>. The source (a 6.3GB file from RuTracker) looked good but it was interlaced, had visible blocking and banding artifacts and had parts of a Carly interview inserted during the show. This release is a processed version by me (I put so much effort to get this right):<br>
- edited with Avisynth: deinterlaced with QTGMC preset Slow for a smooth double frame rate, deblocked with Deblock_QED, debanded with neo_f3kdb;<br>
- muxed with MKV ToolNix;<br>
- demuxed with gMKVExtractGUI;<br>
- added chapters for each song with MKV ToolNix;<br>
- converted with FFmpeg.<br>
<br>
I did quite many tests and I decided to use MP4 HEVC 10 bit (CRF 16) as the video format because it kept the quality high and prevented ugly banding. I also included an MP4 AVC version which is more compatible with older devices. I joined all interview parts into a separate file. The audio wasn't transcoded. I included a text file with the setlist.<br>
<br>
<b>This very fun show is a must-have for any pop fan.</b><br>
<br>
<img src="https://i.postimg.cc/rFmSbHJC/Carly-Rae-Jepsen-NHK-Hall-Tokyo-Japan-07-10-2019-caladan-mkv.jpg" class="bbCodeImage LbImage" alt="[​IMG]" data-url="https://i.postimg.cc/rFmSbHJC/Carly-Rae-Jepsen-NHK-Hall-Tokyo-Japan-07-10-2019-caladan-mkv.jpg" style=""><br>
<br>
<img src="https://i.postimg.cc/Y9r3SC1T/Carly-Rae-Jepsen-NHK-Hall-Tokyo-Japan-07-10-2019.jpg" class="bbCodeImage LbImage" alt="[​IMG]" data-url="https://i.postimg.cc/Y9r3SC1T/Carly-Rae-Jepsen-NHK-Hall-Tokyo-Japan-07-10-2019.jpg" style=""><br>
<br>
<img src="https://i.postimg.cc/4NSzT12C/Carly-Rae-Jepsen-NHK-Interview-Tokyo-Japan-2019-mkv.jpg" class="bbCodeImage LbImage" alt="[​IMG]" data-url="https://i.postimg.cc/4NSzT12C/Carly-Rae-Jepsen-NHK-Interview-Tokyo-Japan-2019-mkv.jpg" style=""><br>
<br>
Setlist:<br>
<div class="ToggleTriggerAnchor bbCodeSpoilerContainer">
<button type="button" class="button bbCodeSpoilerButton ToggleTrigger Tooltip JsOnly" data-target="> .SpoilerTarget"><span>Spoiler</span></button>
<div class="SpoilerTarget bbCodeSpoilerText">1. No Drug Like Me<br>
2. Emotion<br>
3. Run Away With Me<br>
4. Julien<br>
5. (Happy Not Knowing)<br>
6. Call Me Maybe<br>
7. Now That I Found You<br>
8. (Gimmie Love)<br>
9. (Feels Right)<br>
10. (Fever)<br>
11. (First Time)<br>
12. Want You in My Room<br>
13. Store<br>
14. Too Much<br>
15. I Really Like You<br>
16. (Everything He Needs)<br>
17. Boy Problems<br>
18. Party for One<br>
19. Real Love<br>
20. Let's Get Lost<br>
21. Cut to the Feeling<br>
<br>
Songs in brackets weren't broadcasted.</div>
</div><br>
MediaInfo:<br>
<div class="ToggleTriggerAnchor bbCodeSpoilerContainer">
<button type="button" class="button bbCodeSpoilerButton ToggleTrigger Tooltip JsOnly" data-target="> .SpoilerTarget"><span>Spoiler</span></button>
<div class="SpoilerTarget bbCodeSpoilerText">General<br>
Unique ID : 273508016999165514687704894169030433432 (0xCDC3BA5E00ADA2FA1454264C64E99A98)<br>
Complete name : C:\Carly Rae Jepsen - NHK Hall, Tokyo, Japan, 07-10-2019\Carly Rae Jepsen - NHK Hall, Tokyo, Japan, 07-10-2019.mkv<br>
Format : Matroska<br>
Format version : Version 4<br>
File size : 3.63 GiB<br>
Duration : 55 min 41 s<br>
Overall bit rate : 9 339 kb/s<br>
Frame rate : 59.940 FPS<br>
Writing application : Lavf60.3.100<br>
Writing library : Lavf60.3.100<br>
ErrorDetectionType : Per level 1<br>
<br>
Video<br>
ID : 1<br>
Format : HEVC<br>
Format/Info : High Efficiency Video Coding<br>
Format profile : Main 10@L4.1@Main<br>
Codec ID : V_MPEGH/ISO/HEVC<br>
Duration : 55 min 41 s<br>
Bit rate : 9 080 kb/s<br>
Width : 1 920 pixels<br>
Height : 1 080 pixels<br>
Display aspect ratio : 16:9<br>
Frame rate mode : Constant<br>
Frame rate : 59.940 (59940/1000) FPS<br>
Color space : YUV<br>
Chroma subsampling : 4:2:0<br>
Bit depth : 10 bits<br>
Bits/(Pixel*Frame) : 0.073<br>
Stream size : 3.53 GiB (97%)<br>
Writing library : x265 3.5+96-9c9ab68fc:[Windows][GCC 12.2.0][64 bit] 10bit<br>
Encoding settings : cpuid=1049087 / frame-threads=2 / numa-pools=4 / wpp / no-pmode / no-pme / no-psnr / no-ssim / log-level=2 / input-csp=1 / input-res=1920x1080 / interlace=0 / total-frames=0 / level-idc=0 / high-tier=1 / uhd-bd=0 / ref=3 / no-allow-non-conformance / no-repeat-headers / annexb / no-aud / no-eob / no-eos / no-hrd / info / hash=0 / temporal-layers=0 / open-gop / min-keyint=25 / keyint=250 / gop-lookahead=0 / bframes=4 / b-adapt=2 / b-pyramid / bframe-bias=0 / rc-lookahead=20 / lookahead-slices=6 / scenecut=40 / no-hist-scenecut / radl=0 / no-splice / no-intra-refresh / ctu=64 / min-cu-size=8 / no-rect / no-amp / max-tu-size=32 / tu-inter-depth=1 / tu-intra-depth=1 / limit-tu=0 / rdoq-level=0 / dynamic-rd=0.00 / no-ssim-rd / signhide / no-tskip / nr-intra=0 / nr-inter=0 / no-constrained-intra / strong-intra-smoothing / max-merge=3 / limit-refs=1 / no-limit-modes / me=1 / subme=2 / merange=57 / temporal-mvp / no-frame-dup / no-hme / weightp / no-weightb / no-analyze-src-pics / deblock=0:0 / sao / no-sao-non-deblock / rd=3 / selective-sao=4 / early-skip / rskip / no-fast-intra / no-tskip-fast / no-cu-lossless / b-intra / no-splitrd-skip / rdpenalty=0 / psy-rd=2.00 / psy-rdoq=0.00 / no-rd-refine / no-lossless / cbqpoffs=0 / crqpoffs=0 / rc=crf / crf=16.0 / qcomp=0.60 / qpstep=4 / stats-write=0 / stats-read=0 / ipratio=1.40 / pbratio=1.30 / aq-mode=2 / aq-strength=1.00 / cutree / zone-count=0 / no-strict-cbr / qg-size=32 / no-rc-grain / qpmax=69 / qpmin=0 / no-const-vbv / sar=0 / overscan=0 / videoformat=5 / range=0 / colorprim=2 / transfer=2 / colormatrix=1 / chromaloc=0 / display-window=0 / cll=0,0 / min-luma=0 / max-luma=1023 / log2-max-poc-lsb=8 / vui-timing-info / vui-hrd-info / slices=1 / no-opt-qp-pps / no-opt-ref-list-length-pps / no-multi-pass-opt-rps / scenecut-bias=0.05 / no-opt-cu-delta-qp / no-aq-motion / no-hdr10 / no-hdr10-opt / no-dhdr10-opt / no-idr-recovery-sei / analysis-reuse-level=0 / analysis-save-reuse-level=0 / analysis-load-reuse-level=0 / scale-factor=0 / refine-intra=0 / refine-inter=0 / refine-mv=1 / refine-ctu-distortion=0 / no-limit-sao / ctu-info=0 / no-lowpass-dct / refine-analysis-type=0 / copy-pic=1 / max-ausize-factor=1.0 / no-dynamic-refine / no-single-sei / no-hevc-aq / no-svt / no-field / qp-adaptation-range=1.00 / scenecut-aware-qp=0conformance-window-offsets / right=0 / bottom=0 / decoder-max-rate=0 / no-vbv-live-multi-pass / no-mcstf / no-sbrc<br>
Default : Yes<br>
Forced : No<br>
Color range : Limited<br>
Matrix coefficients : BT.709<br>
<br>
Audio<br>
ID : 2<br>
Format : AAC LC<br>
Format/Info : Advanced Audio Codec Low Complexity<br>
Codec ID : A_AAC-2<br>
Duration : 55 min 41 s<br>
Bit rate : 252 kb/s<br>
Channel(s) : 2 channels<br>
Channel layout : L R<br>
Sampling rate : 48.0 kHz<br>
Frame rate : 46.875 FPS (1024 SPF)<br>
Compression mode : Lossy<br>
Delay relative to video : 399 ms<br>
Stream size : 101 MiB (3%)<br>
Default : Yes<br>
Forced : No<br>
<br>
Menu<br>
00:00:00.000 : Intro<br>
00:00:34.600 : No Drug Like Me<br>
00:04:40.765 : Emotion<br>
00:08:29.765 : Run Away With Me<br>
00:12:42.765 : Julien<br>
00:16:40.876 : Call Me Maybe<br>
00:20:09.650 : Now That I Found You<br>
00:23:30.721 : Want You in My Room<br>
00:26:15.068 : Store<br>
00:30:10.067 : Too Much<br>
00:33:33.539 : I Really Like You<br>
00:37:12.037 : Boy Problems<br>
00:41:28.037 : Party for One<br>
00:45:02.036 : Real Love<br>
00:48:57.036 : Let's Get Lost<br>
00:52:09.497 : Cut to the Feeling</div>
</div><br>
<div class="bbCodeBlock bbCodeVfcHH HiddenContent">
<div class="attribution type">Hidden Content:</div>
<blockquote>You must reply before you can see the hidden data contained here.</blockquote>
</div>
<div class="messageTextEndMarker">&nbsp;</div>
</blockquote>
</article>]]></description>
                <author><![CDATA[caladan]]></author>
                </item>

                
                <item>
                <title><![CDATA[【Albums (lossless)】FLAC - Taylor Swift - 1989 (Taylor's Version) Aquamarine Green Edition Cover 16bits]]></title>
                <link><![CDATA[https://sharemania.us/threads/taylor-swift-1989-taylors-version-aquamarine-green-edition-cover-16bits.236098/]]></link>
                <description><![CDATA[<article>
<blockquote class="messageText SelectQuoteContainer ugc baseHtml">
<img src="https://i.redd.it/album-cover-for-1989-taylors-version-aquamarine-green-v0-lfdu587tgijb1.jpg?s=7582152b8bffe25f7cd172cfe0b084ea5189e1e3" class="bbCodeImage LbImage" alt="[​IMG]" data-url="https://i.redd.it/album-cover-for-1989-taylors-version-aquamarine-green-v0-lfdu587tgijb1.jpg?s=7582152b8bffe25f7cd172cfe0b084ea5189e1e3" style=""><br>
<br>
<a href="https://www.discogs.com/es/release/28801036-Taylor-Swift-1989-Taylors-Version" target="_blank" class="externalLink" rel="nofollow">https://www.discogs.com/es/release/28801036-Taylor-Swift-1989-Taylors-Version</a><br>
<div class="bbCodeBlock bbCodeVfcHH HiddenContent">
<div class="attribution type">Hidden Content:</div>
<blockquote>You must either reply or click 'Like' to see the hidden information contained here.</blockquote>
</div>
<div class="messageTextEndMarker">&nbsp;</div>
</blockquote>
</article>]]></description>
                <author><![CDATA[rominuchiis]]></author>
                </item>

                </channel></rss>